<svg xmlns="http://www.w3.org/2000/svg" version="1.1" xmlns:xlink="http://www.w3.org/1999/xlink" xmlns:svgjs="http://svgjs.com/svgjs" width="1441" height="560" preserveAspectRatio="none" viewBox="0 0 1441 560"><g mask="url(&quot;#SvgjsMask1015&quot;)" fill="none"><rect width="1441" height="560" x="0" y="0" fill="rgba(214, 73, 51, 1)"></rect><path d="M451.07 565.44C602.98 558.91 706.61 311.35 1000.39 304.37 1294.16 297.39 1406.89 149.1 1549.7 147.57" stroke="rgba(245, 255, 240, 0.58)" stroke-width="2"></path><path d="M356.15 595.32C509.19 558.62 558.12 155.23 798.49 147.43 1038.87 139.63 1019.66 217.43 1240.84 217.43 1462.01 217.43 1571.22 147.65 1683.18 147.43" stroke="rgba(245, 255, 240, 0.58)" stroke-width="2"></path><path d="M535.06 605.46C692.95 568.7 753.1 151.24 994.26 147.63 1235.42 144.02 1331.72 307.66 1453.46 310.03" stroke="rgba(245, 255, 240, 0.58)" stroke-width="2"></path><path d="M546.17 614.71C682.69 572.2 635.43 180.78 918.05 180.18 1200.67 179.58 1465.52 428.79 1661.81 432.18" stroke="rgba(245, 255, 240, 0.58)" stroke-width="2"></path><path d="M855.55 576.66C1013 525.57 1058.42 71.37 1280.14 68.61 1501.86 65.85 1581.64 311.36 1704.73 320.61" stroke="rgba(245, 255, 240, 0.58)" stroke-width="2"></path></g><defs><mask id="SvgjsMask1015"><rect width="1441" height="560" fill="#ffffff"></rect></mask></defs></svg>