<svg width="1930" height="560" viewBox="0 0 1930 560" fill="none" xmlns="http://www.w3.org/2000/svg">
<path d="M1930 0H0V560H1930V0Z" fill="#0E2A47"/>
<path d="M-1016.72 427C-888.055 389 -630.721 247.2 -373.387 237C-116.055 226.8 12.6121 395.8 269.946 376C527.279 356.2 655.945 131.6 913.28 138C1170.61 144.4 1353.27 414.4 1556.61 408C1759.96 401.6 1855.32 166.4 1930 106" stroke="#D64933" stroke-width="2"/>
<path d="M-125.211 145C3.45789 212.6 260.791 460.4 518.122 483C775.458 505.6 904.125 259.4 1161.46 258C1418.79 256.6 1547.46 513.8 1804.79 476C2062.12 438.2 2423.07 76.6 2448.12 69C2473.16 61.4 2033.63 364.2 1930 438" stroke="#D64933" stroke-width="2"/>
<path d="M-1050.85 298C-922.191 288.6 -664.858 215.4 -407.519 251C-150.191 286.6 -21.5248 486.8 235.814 476C493.142 465.2 621.809 203 879.148 197C1136.48 191 1312.31 473.2 1522.48 446C1732.66 418.8 1848.5 138 1930 61" stroke="#D64933" stroke-width="2"/>
<path d="M-209.925 429C-81.261 373.6 176.072 165.2 433.408 152C690.739 138.8 819.406 358.6 1076.74 363C1334.07 367.4 1462.74 176 1720.08 174C1977.41 172 2321.43 356.4 2363.41 353C2405.4 349.6 2016.68 196.2 1930 157" stroke="#D64933" stroke-width="2"/>
</svg>
