<svg width="2337" height="668" viewBox="0 0 2337 668" fill="none" xmlns="http://www.w3.org/2000/svg">
<path d="M1947 0H0V560H1947V0Z" fill="#D64933"/>
<path d="M514.82 580.34C673.028 565.72 639.942 300.47 1027.9 300.17C1415.85 299.87 1793.53 434.05 2054.06 434.57" stroke="white" stroke-opacity="0.58" stroke-width="2"/>
<path d="M1034.16 583.42C1171.38 568.45 1112.01 337.34 1468.13 327.77C1824.26 318.2 2111.32 155.69 2336.09 154.17" stroke="white" stroke-opacity="0.58" stroke-width="2"/>
<path d="M715.672 666.6C929.68 657.41 1053.25 381.04 1471.85 367.56C1890.44 354.08 2023.04 137.08 2228.02 132.36" stroke="white" stroke-opacity="0.58" stroke-width="2"/>
<path d="M784.086 563.3C1011.07 547.73 1127.29 209.35 1549.27 196.5C1971.26 183.65 2115.46 35.7 2314.45 34.1" stroke="white" stroke-opacity="0.58" stroke-width="2"/>
<path d="M671.754 639.55C841.359 595.78 770.47 227.54 1120.92 224.73C1471.36 221.92 1790.48 352.94 2019.24 353.53" stroke="white" stroke-opacity="0.58" stroke-width="2"/>
</svg>
